<?xml version="1.0" encoding="UTF-8"?>
<svg width="12px" height="12px" viewBox="0 0 12 12" version="1.1" xmlns="http://www.w3.org/2000/svg" xmlns:xlink="http://www.w3.org/1999/xlink">
    <!-- Generator: Sketch 52.5 (67469) - http://www.bohemiancoding.com/sketch -->
    <title>gift</title>
    <desc>Created with Sketch.</desc>
    <g id="Artboards" stroke="none" stroke-width="1" fill="none" fill-rule="evenodd" stroke-linecap="round" stroke-linejoin="round">
        <g id="VFinal" transform="translate(-374.000000, -1594.000000)" stroke="#FFFFFF">
            <g id="Group-2" transform="translate(300.000000, 820.000000)">
                <g id="gift" transform="translate(75.000000, 775.000000)">
                    <polyline id="Path" points="9 5 9 10 1 10 1 5"></polyline>
                    <rect id="Rectangle" x="0" y="2.5" width="10" height="2.5"></rect>
                    <path d="M5,10 L5,2.5" id="Path"></path>
                    <path d="M5,2.5 L2.75,2.5 C2.05964406,2.5 1.5,1.94035594 1.5,1.25 C1.5,0.559644063 2.05964406,8.8817842e-16 2.75,8.8817842e-16 C4.5,4.4408921e-16 5,2.5 5,2.5 Z" id="Path"></path>
                    <path d="M5,2.5 L7.25,2.5 C7.94035594,2.5 8.5,1.94035594 8.5,1.25 C8.5,0.559644063 7.94035594,8.8817842e-16 7.25,8.8817842e-16 C5.5,4.4408921e-16 5,2.5 5,2.5 Z" id="Path"></path>
                </g>
            </g>
        </g>
    </g>
</svg>