<svg width="400" height="488" viewBox="0 0 400 488" xmlns="http://www.w3.org/2000/svg"><defs><linearGradient x1="49.995%" y1="100.003%" x2="49.995%" y2="-.005%" id="a"><stop stop-color="gray" stop-opacity=".25" offset="0%"/><stop stop-color="gray" stop-opacity=".12" offset="54%"/><stop stop-color="gray" stop-opacity=".1" offset="100%"/></linearGradient></defs><g fill="none" fill-rule="evenodd"><path d="M198.828 17.994C215.928 2.722 242.781-.37 267.261.804c76.824 3.825 146.171 40.951 206.16 82.953 21.718 15.201 43.097 31.588 57.191 52.527 28.717 42.624 20.184 101.67-19.714 136.783-13.579 11.945-30.035 21.121-46.93 29.223-30.042 14.433-62.456 26.02-96.552 29.335-24.31 2.347-48.923.44-73.098-2.84-67.53-9.17-133.817-29.446-189.38-64.131-24.368-15.213-47.347-34.128-57.38-58.74-10.033-24.612-3.616-55.801 21.267-70.37 10.291-6.024 22.598-8.747 34.642-11.305 17.733-3.76 35.748-7.468 51.747-15.113 16.533-7.897 36.1-23.169 32.819-40.652-3.505-18.757-6.318-35.226 10.795-50.48z" fill="#6C63FF" opacity=".1"/><ellipse fill="#6C63FF" opacity=".1" cx="270.126" cy="463.433" rx="78.026" ry="24.454"/><path fill="#F5C5CC" d="M249.398 173.804l2.596 136.53 6.019.634-2.028-137.716z"/><path fill="#CC929B" d="M252.873 171.251l2.977 142.099 2.163-2.382-2.028-137.716z"/><path fill="#F5C5CC" d="M262.203 177.26l2.596 136.524 6.019.634-2.028-137.71z"/><path fill="#CC929B" d="M265.678 174.701l2.983 142.099 2.157-2.382-2.028-137.71z"/><path fill="#F5C5CC" d="M274.721 181.002l2.596 136.53 6.019.635-2.028-137.71z"/><path fill="#CC929B" d="M278.196 178.456l2.983 142.093 2.157-2.382-2.028-137.71z"/><path fill="#F5C5CC" d="M286.9 181.765l2.671 141.324 6.02.657-2.11-142.544z"/><path fill="#CC929B" d="M290.368 179.125l3.065 147.085 2.157-2.464-2.11-142.544z"/><path fill="#F5C5CC" d="M300.103 182.868l2.678 141.318 6.019.657-2.11-142.544z"/><path fill="#CC929B" d="M303.578 180.228l3.065 147.08 2.157-2.465-2.11-142.544z"/><path fill="#F5C5CC" d="M313.078 187.485l2.672 141.324 6.019.657-2.104-142.544z"/><path fill="#CC929B" d="M316.547 184.845l3.065 147.085 2.157-2.464-2.104-142.544z"/><path fill="#F5C5CC" d="M327.928 190.536l2.743 145.267 6.019.674-2.175-146.522z"/><path fill="#CC929B" d="M331.398 187.826l3.135 151.186 2.157-2.535-2.175-146.522z"/><path fill="#F5C5CC" d="M340.85 192.08l2.737 145.266 6.025.674-2.18-146.522z"/><path fill="#CC929B" d="M344.32 189.363l3.135 151.192 2.157-2.535-2.18-146.522z"/><path fill="#F5C5CC" d="M354.54 195.951l2.743 145.267 6.019.68-2.174-146.522z"/><path fill="#CC929B" d="M358.016 193.24l3.13 151.193 2.156-2.535-2.174-146.522z"/><path fill="#F5C5CC" d="M237.671 173.563l-.293-8.648 3.048-1.666 218.56 44.876.404 10.977z"/><path fill="#CC929B" d="M240.426 163.249l219.363 44.841-.223 4.113-221.737-47.54"/><path fill="#F5C5CC" d="M249.474 388.787l-6.153 2.242h-5.86l-.294-231.476 3.223-4.483 3.112-.915 3.921-.593z"/><path fill="#CC929B" d="M249.474 388.787l-6.153 2.242-.381-231.019.562-5.855 3.921-.593z"/><path fill="#F5C5CC" d="M369.414 200.252l2.743 145.26 6.019.681-2.174-146.522z"/><path fill="#CC929B" d="M372.884 197.535l3.135 151.193 2.157-2.535-2.174-146.522z"/><path fill="#F5C5CC" d="M384.4 202.546l2.795 148.37 6.019.692-2.233-149.649z"/><path d="M387.869 199.777l3.188 154.419 2.157-2.588-2.233-149.649z"/><path fill="#F5C5CC" d="M399.83 205.262l2.83 150.617 6.02.71-2.263-151.925zM164.204 344.386l-6.153.587-.287-162.04-.006-2.236 4.102-3.227.065 4.494zM185.888 335.292l-6.153.587-.288-159.394-.005-4.882 4.102-3.226.094 6.547zM221.637 320.625l-6.154.586-.28-157.381-.013-6.894 4.103-3.227.129 9.14zM237.167 314.758l-6.153.586-.276-153.538-.017-10.737 4.102-3.227.211 14.914zM175.046 342.626l-6.153.587-.293-163.102v-1.174l4.102-3.227.041 3.092zM206.693 327.959l-6.154.586-.287-160.028-.006-4.247 4.103-3.227.082 6.02zM196.437 330.892l-6.154.587-.28-159.06-.013-5.216 4.103-3.227.094 6.794z"/><path d="M157.64 317.316l-1.464 3.08s-3.81 5.72-3.37 14.52c.44 8.801-6.136 32.122-6.136 32.122s6.007 2.787 10.549 2.494c4.542-.293 14.358 4.547 14.358 4.547l20.347 6.319 41.17 9.68s24.175 13.494 30.768 13.494 32.818 8.947 32.818 8.947 35.456 7.774 38.24 10.708c2.783 2.933 14.522 6.882 15.694 7.04 1.172.158 19.047 1.907 19.047 1.907s20.804 4.84 23.734-.294a26.467 26.467 0 0 0 3.37-9.387s9.23 2.054 11.721-1.027c2.49-3.08 2.637-9.68 5.568-9.387 2.93.294 14.944 3.96 16.262 2.64 1.319-1.32 8.352-16.867 13.333-14.52 4.981 2.346 13.626 6.013 13.626 6.013l-4.982-50.75-2.198-13.933s-79.848 32.562-82.632 32.562c-2.784 0-209.822-56.775-209.822-56.775z" fill="#6C63FF"/><path d="M449.656 272.873l-.44 71.578-82.943 31.84-210.097-55.883s-14.212-20.095-1.026-38.87c0 0-16.995-23.467 4.102-38.721l.522-.123 79.767-19.238 35.473 6.489 156.738 28.701s15.396 5.72 17.904 14.227z" fill="#6C63FF"/><path d="M272.213 236.791c-3.956 2.054-32.672 9.534-38.386 14.081-5.714 4.547-45.272 8.079-45.272 8.079l-4.396.88s.293-2.933-17.142-11.44a22.232 22.232 0 0 1-7.243-5.697l79.767-19.238 35.473 6.489c.047 2.81-.434 5.614-2.801 6.846z" fill="#000" opacity=".1"/><path d="M151.634 208.495s-1.465 28.455 15.97 36.962c17.434 8.507 17.159 11.429 17.159 11.429l4.395-.88s-15.237-17.014-14.211-19.948c1.025-2.933-13.626-17.748-15.695-18.334-2.068-.587-7.618-9.229-7.618-9.229z" fill="#6C63FF"/><path d="M151.944 208.923s-1.465 28.455 15.97 36.962c17.435 8.507 17.142 11.44 17.142 11.44l4.395-.88s-15.237-17.013-14.211-19.947c1.025-2.933-13.644-17.748-15.677-18.334-2.034-.587-7.619-9.24-7.619-9.24z" fill="#000" opacity=".1"/><path d="M156.047 220.95s14.065 21.268 16.555 22.002c2.491.733-13.203-21.708-16.555-22.001z" fill="#000" opacity=".1"/><path d="M149.6 204.523s9.084-7.334 10.256-8.8c1.172-1.467 14.065-2.054 14.505-2.054.44 0 10.255-6.014 21.244-7.92 10.988-1.907 15.383-2.787 15.383-2.787s16.117-6.747 16.996-8.214c.879-1.467 8.351-3.08 17.581 4.107 9.23 7.187 29.596 39.455 29.742 42.976.147 3.52 1.465 9.974-2.49 12.027-3.956 2.053-32.673 9.534-38.387 14.08-5.714 4.548-45.29 8.08-45.29 8.08l-14.926-16.293-7.912-12.76-13.186-13.935-3.516-8.507z" fill="#6C63FF"/><path d="M174.097 331.203s-5.468 1.173-2.344 4.3c3.123 3.128 2.344-4.3 2.344-4.3zM193.243 337.463s-5.86 7.04-4.688 8.994c1.172 1.954 4.688-8.994 4.688-8.994zM227.626 346.457s-5.86 7.04-4.688 8.994c1.172 1.954 4.688-8.994 4.688-8.994zM269.429 358.191s-5.86 7.04-4.688 8.994c1.172 1.954 4.688-8.994 4.688-8.994zM325.69 372.272s-5.861 7.04-4.689 8.994c1.172 1.954 4.688-8.994 4.688-8.994zM210.045 339.417s-5.86 7.04-4.688 8.994c1.172 1.954 4.688-8.994 4.688-8.994zM291.699 364.058s-5.86 7.04-4.689 8.994c1.173 1.954 4.689-8.994 4.689-8.994zM308.888 369.532s-5.86 7.04-4.689 9c1.172 1.96 4.689-9 4.689-9zM242.864 351.15s-5.86 7.041-4.689 8.995c1.172 1.953 4.689-8.994 4.689-8.994zM390.547 393.786l6.2 28.695s.048-20.094-6.2-28.695zM155.15 281.527l212.342 47.722 81.66-23.86-82.44 21.513s-205.116-47.329-211.562-45.375z" fill="#000" opacity=".1"/><path fill="#F5C5CC" d="M161.567 229.687l.293 136.554 6.007.733.293-137.727z"/><path fill="#CC929B" d="M165.083 227.193l.586 142.128 2.198-2.347.293-137.727z"/><path fill="#F5C5CC" d="M174.314 233.353l.293 136.554 6.007.734.293-137.728z"/><path fill="#CC929B" d="M177.83 230.86l.586 142.128 2.198-2.347.293-137.728z"/><path fill="#F5C5CC" d="M186.767 237.314l.293 136.554 6.007.733.293-137.727z"/><path fill="#CC929B" d="M190.283 234.82l.586 142.128 2.198-2.347.293-137.727z"/><path fill="#F5C5CC" d="M198.928 238.282l.293 141.347 6.007.757.293-142.562z"/><path fill="#CC929B" d="M202.444 235.7l.586 147.115 2.198-2.43.293-142.561z"/><path fill="#F5C5CC" d="M212.114 239.602l.293 141.347 6.007.757.293-142.562z"/><path fill="#CC929B" d="M215.63 237.02l.586 147.115 2.198-2.43.293-142.56z"/><path fill="#F5C5CC" d="M225.007 244.442l.293 141.347 6.007.757.293-142.562z"/><path fill="#CC929B" d="M228.523 241.86l.586 147.115 2.198-2.429.293-142.562z"/><path d="M239.804 247.74l.293 145.29 6.007.78.293-146.54z"/><path fill="#CC929B" d="M243.32 245.087l.587 151.222 2.197-2.5.293-146.54z"/><path fill="#F5C5CC" d="M252.697 249.5l.293 145.29 6.007.78.293-146.54z"/><path fill="#CC929B" d="M256.214 246.847l.586 151.222 2.197-2.5.293-146.539z"/><path fill="#F5C5CC" d="M266.323 253.606l.293 145.29 6.007.78.293-146.54z"/><path fill="#CC929B" d="M269.84 250.954l.585 151.222 2.198-2.5.293-146.54z"/><path fill="#F5C5CC" d="M281.12 258.153l.294 145.29 6.007.78.293-146.54z"/><path fill="#CC929B" d="M284.637 255.501l.586 151.222 2.198-2.5.293-146.54z"/><path fill="#F5C5CC" d="M296.065 260.705l.293 148.388 6.007.798.293-149.667z"/><path fill="#CC929B" d="M299.581 257.995l.586 154.448 2.198-2.552.293-149.667zM311.449 263.68l.293 150.646 6.007.81.293-151.943z"/><path d="M314.965 260.928l.586 156.795 2.198-2.587.293-151.943z"/><path fill="#F5C5CC" d="M327.125 267.787l.293 150.646 6.007.81.293-151.943z"/><path fill="#CC929B" d="M330.642 265.035l.586 156.795 2.197-2.587.293-151.943zM341.63 270.867l.293 150.646 6.007.81.293-151.943z"/><path d="M345.146 268.115l.586 156.795 2.198-2.587.293-151.943z"/><path fill="#F5C5CC" d="M153.656 392.789l-6.154 2.346h-5.86l-.293-215.318 3.223-4.693 3.112-.957 4.506-1.39z"/><path fill="#CC929B" d="M153.656 392.789l-6.154 2.346-.38-214.843.562-6.125 4.506-1.39z"/><ellipse fill="#40414D" cx="148.088" cy="394.842" rx="7.033" ry="7.04"/><path fill="#F5C5CC" d="M383.093 381.348l-6.154.587-.281-158.168-.012-6.108 4.103-3.227.117 8.431zM404.776 372.254l-6.153.587-.275-155.246-.018-9.03 4.102-3.226.153 10.713zM393.935 379.588l-6.154.587-.281-159.066-.012-5.21 4.102-3.227.1 7.164z"/><path fill="#F5C5CC" d="M370.786 380.274l84.977-36.181 5.86 1.367.193 13.494-89.465 34.615z"/><path fill="#CC929B" d="M455.763 344.093l-84.977 36.181 90.52-34.89"/><path fill="#F5C5CC" d="M150.626 361.107l214.3 65.123-.393 10.561-214.687-66.297z"/><path fill="#F5C5CC" d="M374.302 463.192l-6.153 2.347h-5.86l-.294-241.133v-1.173l.457-.669 2.766-4.025 3.112-.956 4.507-1.39.047 8.213z"/><path fill="#CC929B" d="M374.302 463.192l-6.153 2.347-.381-241.83.562-6.126 4.507-1.39z"/><path d="M372.837 216.192l.047 8.214a49.9 49.9 0 0 1-5.116.481c-4.22.165-5.773-.475-5.773-.475 0-.082.164-.74.457-1.836l2.766-4.025 3.112-.956 4.507-1.403zM380.749 214.432l.117 8.431c-1.512.352-2.915.653-4.208.904v-6.108l4.09-3.227zM391.59 212.672l.1 7.164c-1.46.463-2.86.886-4.19 1.273v-5.21l4.09-3.227zM402.432 205.339l.153 10.713a356 356 0 0 1-4.237 1.543v-9.03l4.084-3.226z" fill="#000" opacity=".1"/><path d="M470.414 195.071s-10.842 0-13.772-.88c-2.93-.88-9.084 2.64-46.884 17.895-22.856 9.228-35.544 11.37-41.99 11.622-4.22.164-5.773-.475-5.773-.475s7.718-35.448 32.297-42.072a72.842 72.842 0 0 0 8.07-2.717l.475-.182c2.064-.8 4.18-1.457 6.335-1.965 7.888-1.813 13.52-5.28 27.778-5.386a38.973 38.973 0 0 1 24.485 8.132c4.888 3.848 9.102 9.17 8.979 16.028z" fill="#CC929B"/><path d="M403.897 178.057c-30.415 13.13-35.057 37.672-36.13 45.651-4.219.164-5.772-.475-5.772-.475s7.718-35.448 32.297-42.072a72.842 72.842 0 0 0 8.07-2.717l.475-.182c.351-.052.703-.123 1.06-.205z" fill="#F5C5CC"/><path d="M161.86 177.47l.065 4.494c-1.483.37-2.866.693-4.161.969v-2.236l4.096-3.227zM172.702 175.71l.041 3.092a150.27 150.27 0 0 1-4.143 1.309v-1.174l4.102-3.227zM183.544 168.377l.094 6.547a244.197 244.197 0 0 1-4.19 1.56v-4.88l4.096-3.227zM194.093 163.976l.094 6.794c-1.348.52-2.743 1.07-4.185 1.649v-5.216l4.09-3.227zM204.349 161.043l.082 6.02c-1.329.445-2.722.93-4.179 1.454v-4.247l4.097-3.227zM219.293 153.71l.129 9.14c-1.295.27-2.696.587-4.22.98v-6.894l4.09-3.227zM235.034 162.733a15.44 15.44 0 0 0-4.296-.95v-10.738l4.103-3.226.193 14.914z" fill="#000" opacity=".1"/><path d="M249.767 162.803s-10.842 0-13.772-.88c-2.93-.88-9.084-5.574-46.884 9.68-22.855 9.23-35.543 11.37-41.99 11.623-4.22.164-5.772-.475-5.772-.475s5.819-30.802 31.482-36a37.696 37.696 0 0 0 4.237-1.086c1.577-.516 4.061-1.255 7.402-2.024 8.615-1.983 22.897-4.16 41.879-3.238a25.96 25.96 0 0 1 17.458 7.662 20.141 20.141 0 0 1 5.96 14.738z" fill="#CC929B"/><path d="M184.47 143.641c-30.416 13.13-36.276 31.606-37.349 39.585-4.22.164-5.772-.475-5.772-.475s5.819-30.802 31.482-36a37.696 37.696 0 0 0 4.237-1.086c1.577-.533 4.061-1.255 7.402-2.024zM149.846 229.247l-.146-8.654 3.076-1.614 210.391 47.23-.586 11z" fill="#F5C5CC"/><path fill="#CC929B" d="M152.776 218.98l210.391 47.229-.293 4.106-212.717-49.963"/><ellipse fill="#40414D" cx="369.028" cy="467.886" rx="7.033" ry="7.04"/><path d="M157.857 323.165s-6.253 7.04-8.204 13.3c-1.952 6.26 2.344 29.729 2.344 29.729a43.24 43.24 0 0 0 4.688-12.52c1.56-7.428 1.172-30.509 1.172-30.509z" fill="#6C63FF"/><path d="M339.14 142.087h-.1c-.024-.2-.099-.39-.217-.552a2.878 2.878 0 0 0-.973-.74l-2.749-1.53 2.374.862a5.31 5.31 0 0 0-.37-.551l.276.152-.187-.264-.252-.088c-1.266-1.484-3.376-2.1-5.421-2.071h.035a12.2 12.2 0 0 1 .797-.076 9.501 9.501 0 0 0-1.758.053.82.82 0 0 0 .205.058c-.188 0-.375.035-.586.059a1.756 1.756 0 0 1-.92 0 1.332 1.332 0 0 1-.71-.968c-.292-1.174.17-2.435.305-3.661a3.93 3.93 0 0 0-.181-1.707v-.352a1.759 1.759 0 0 0-1.172-1.08c-.003.045-.003.09 0 .135l-.1-.041v3.156a12.578 12.578 0 0 1-2.397-2.499 1.098 1.098 0 0 1-.24-.499c-.059-.534.62-.903.662-1.443a.804.804 0 0 0-.586-.763l.176-.064a1.317 1.317 0 0 0-.668-.118 11.22 11.22 0 0 0-1.477.446l.152.03a3.332 3.332 0 0 1-.346.094c-1.47.305-2.783-.869-3.844-1.93l-.229-.23c-.504-4.417-1.318-9.48-1.318-9.48s-.733-5.785-1.758-8.895c-1.026-3.11-2.503-8.6-2.503-8.6s-3.375-6.672-4.102-6.965a8.946 8.946 0 0 1-.826-.47 13.15 13.15 0 0 1-.587-3.074c-.181-5.831 6.043-9.974 6.98-15.753.768-4.693-2.186-9.387-1.758-14.145.2-2.083 1.037-4.042 1.489-6.084.428-1.98.486-4.024.17-6.025a9.94 9.94 0 0 0-.961-3.092 16.702 16.702 0 0 0 2.115-3.585c.95-2.71-.076-5.738-1.559-8.214-4.764-7.88-14.416-14.08-23.442-14.884-3.639-.335-7.29-.4-10.935-.458-4.185-.076-8.51-.123-12.377 1.496-7.69 3.221-11.329 11.828-16 18.775a53.196 53.196 0 0 1-14.545 14.532c-2.702 1.807-5.86 3.731-6.494 6.94-.06.308-.097.62-.111.934a8.61 8.61 0 0 1-.193-.857c-.64 3.35 1.723 6.454 2.93 9.651a17.03 17.03 0 0 1 1.078 5.216c.047-.844.047-1.69 0-2.535 1.172 6.09-.979 12.626-2.309 18.851-.1.458-.176.915-.27 1.373a11.205 11.205 0 0 0-3.082 1.39 17.324 17.324 0 0 1-6.927 2.7 12.937 12.937 0 0 0-8.334 5.01c-.375.504-.738.85-1.055.885-1.318.153-8.667 23.128-8.667 23.128s-1.53 9.464-1.53 11.681c0 2.218-2.643 18.235-2.643 18.235s-.885 2.933-.586 4.148c.17.675-.234 2.933-.615 4.752-.16-.066-.3-.171-.41-.305-.44-.886-8.527 0-6.025 5.932a11.63 11.63 0 0 0 2.83 4.212c-1.113 2.793-2.08 5.392-1.951 5.72 0 0 0 2.118.188 4.735a96.52 96.52 0 0 0-3.124 2.23c-.123 3.238 2.034 3.754 4.061 3.637.522 1.877 1.284 3.368 2.403 3.772 3.675 1.338 6.025.746 7.203 1.76 1.178 1.016 7.46 2.987 7.46 2.987 2.668.402 5.356.659 8.052.768l1.079.54-.13-.587c.346-.064.188-.475-.246-1.173-.193-.898-.44-2.071-.715-3.409l1.612-.586.44.65c-.586 3.075-.961 5.123-.961 5.123s-2.93 10.525-1.618 12.156c1.313 1.631 0 3.708 0 3.708s-.293 2.664.445 2.664c.739 0 1.612 3.408.88 3.561-.733.153-4.103 2.963-2.93 3.555 1.171.593 0 1.925 0 3.262 0 .974 1.793 2.418 2.765 3.128a104.8 104.8 0 0 0-.527 1.97c-.504 1.96-.897 3.85-.774 4.536.293 1.631-.732 6.225-.44 7.71.294 1.484 1.325 4.74.587 6.077-.739 1.338.146 5.78.146 5.78l1.325 12.596s-.88 3.561 0 4.447c.879.886 1.617 11.27 2.496 12.456.88 1.185 2.21 7.41 1.173 9.486-1.038 2.077 1.324 6.372 1.324 6.372s-.147 5.04-.147 6.372c0 1.331 1.32 3.408 1.32 3.408s1.324 7.117 1.171 8.895c-.152 1.777.88 4.3.88 4.3s.884 5.187.738 6.372c-.147 1.185 1.172 2.816 1.172 2.816s1.617 3.854 1.172 5.485c-.446 1.631 1.025 3.263 1.025 3.263s-.146 3.555-.146 4c0 .447 3.088 4.002 3.088 4.002s-1.324 2.67-.586 3.708c.739 1.038.586 4.74 1.758 5.932 1.173 1.19.88 6.072 2.345 6.964 1.465.891 2.79 1.63 3.082 3.555.293 1.924 1.471 4.746 2.796 5.192.251.173.47.39.644.64l-.586 2.493-1.81 7.54s-1.759 10.965-1.618 12.596c.14 1.63-1.758 3.262-1.758 3.262s-1.618 9.487-1.91 10.672c-.294 1.185.146 3.409.146 3.409s-1.026 5.632-.293 5.931c.732.3 3.82 3.409 3.82 3.409h.241l-.316 1.115-5.07 18.011s-4.688 7.856 6.177 11.857c.364.704.698.722.305.587.357.305 7.619 6.454 8.205 9.334.586 2.881 5.585 5.926 7.349 6.225 1.764.3 13.52 9.78 17.78.446 4.26-9.334-7.495-15.418-7.495-15.418l-8.95-5.768s-4.553-6.67-5.274-7.855c-.72-1.186-2.057-6.97-1.172-7.856.452-.458 1.864-4.518 3.142-8.378.117-.37.24-.734.357-1.097 2.497.586 5.321-.587 5.321-.587l6.546-10.338 1.173-1.813.21.423s5.44.446 8.082.892a7.61 7.61 0 0 0 2.485-.311c.1.217.2.44.293.663a32.466 32.466 0 0 1 1.63 4.241c.439 1.925.884 8.742.884 8.742s-2.93 9.786-3.674 11.564c-.745 1.778.732 16.604 15.284 10.672 0 0 1.758-2.816 3.375-2.816 1.618 0 5.585-4.001 4.103-8.302-1.483-4.3-7.619-17.49-3.376-24.453 3.423-5.61 3.147-13.13-1.453-16.628-.194-.146-.399-.275-.586-.404.05-.747.05-1.495 0-2.242-1.032-14.227-7.619-14.972-7.619-14.972s-3.821-.886-4.26-2.347c-.258-.856-3.57-5.28-6.312-8.877.093-.152.181-.305.27-.457 0-.053.058-.106.081-.159.13-.24.252-.487.37-.745 2.133-4.799 1.582-11.78 1.47-13.03-.146-1.631 0-3.708 0-6.079 0-2.37 2.345-5.931 2.058-7.263-.288-1.332 2.795-6.817 2.795-8.155 0-1.338 2.163-9.346 2.163-9.346s4.26-9.194 5.145-11.863c.844-2.558 15.894-49.189 17.113-52.967.022-.084.05-.166.082-.247 0 0 4.805-15.74 1.588-26.078a16.586 16.586 0 0 0-.756-2.001c.984-.475 1.664-.821 1.664-.821s-1.91-5.633-1.031-7.71.293-6.078.293-6.078-3.517-2.077-3.669-2.963c-.152-.886-1.617-2.077-1.172-3.262.445-1.185 2.93-.586 2.643-3.262-.287-2.675-3.376-5.485-3.083-7.116.293-1.631 1.466-4.594 0-6.372-1.465-1.778-2.057-4.594-2.203-6.817-.041-.587.088-2.318.293-4.6a51.59 51.59 0 0 0 4.847 2.67s6.317.891 6.616.299a13.94 13.94 0 0 1 1.91-2.077c7.936-1.925 4.408-16.428 4.408-16.428s-.118-1.062-.305-2.81c.2-.05.387-.14.55-.264.675-.493.839-1.432 1.249-2.17a10.78 10.78 0 0 1 1.63-1.914c1.453-1.584 2.314-3.608 3.146-5.597.528-1.267 1.067-2.534 1.6-3.807.534-1.273 1.172-2.793 2.344-3.714 1.348-1.086 3.177-1.297 4.894-1.455a6.135 6.135 0 0 0-1.4-3.59 3.595 3.595 0 0 1 3.082.469c.024-.04.045-.081.064-.124h.035a.793.793 0 0 0 .135-.492zM213.65 182.68c.034-.293.087-.586.151-.88.288-.27.633-.586 1.003-.88l2.05.2c-.503.41-.943.786-1.3 1.09-.633-.322-1.325-.005-1.905.47zm4.101-4.066a3.15 3.15 0 0 0 .85-.181h1.794c-.98.686-1.97 1.449-2.849 2.159l.205-1.93v-.048zm3.382-29.921s-.135 4.212.164 8.448c-.457.323-.932.675-1.4 1.045l1.037-9.769.199.276z" fill="url(#a)" fill-rule="nonzero"/><path d="M297.676 448.085c-1.611 0-3.37 2.787-3.37 2.787-14.504 5.867-15.97-8.8-15.237-10.56.733-1.76 3.663-11.441 3.663-11.441s-.44-6.747-.879-8.654a32.742 32.742 0 0 0-1.623-4.195c-.985-2.247-2.04-4.459-2.04-4.459s6.3-15.547 14.652-14.08a9.418 9.418 0 0 1 4.102 1.76c4.589 3.46 4.864 10.906 1.447 16.427-4.248 6.894 1.905 19.948 3.37 24.201 1.465 4.254-2.473 8.214-4.085 8.214zM275.553 472.873c-4.249 9.24-15.97-.147-17.728-.44-1.758-.293-6.74-3.227-7.325-6.16-.586-2.934-7.836-8.936-8.205-9.235.393.123.059.106-.305-.587-10.842-3.96-6.153-11.734-6.153-11.734l5.052-17.824 1.394-4.91 15.824-1.027s-1.085 3.467-2.292 7.11c-1.272 3.82-2.678 7.84-3.13 8.29-.878.88.44 6.601 1.173 7.775.732 1.173 5.274 7.773 5.274 7.773l8.937 5.72s11.733 6.008 7.484 15.249z" fill="#FDC2CC"/><path d="M258.118 420.95s-1.084 3.468-2.291 7.111a4.213 4.213 0 0 1-2.104-1.39l-12.747.293-.076-.076 1.395-4.911 15.823-1.027z" fill="#000" opacity=".1"/><path d="M309.69 261.515s0 .082-.076.24c-1.219 3.738-16.222 49.87-17.065 52.416-.88 2.64-5.128 11.734-5.128 11.734s-2.198 7.92-2.198 9.24c0 1.32-3.077 6.748-2.784 8.068.293 1.32-2.05 4.84-2.05 7.187 0 2.347-.147 4.4 0 6.013.11 1.238.655 8.15-1.472 12.908a8.678 8.678 0 0 1-2.022 2.933c-.236.215-.49.41-.756.587-5.274 3.52-5.714 39.602-5.714 39.602l-.246.387-2.139 3.356-6.552 10.209s-5.274 2.2-7.765-.88l-12.747.293s-3.076-3.08-3.809-3.373c-.732-.294.293-5.867.293-5.867s-.44-2.2-.146-3.374c.293-1.173 1.904-10.56 1.904-10.56s1.905-1.614 1.758-3.227c-.146-1.614 1.612-12.468 1.612-12.468l1.805-7.457.89-3.678 1.847-7.627 12.453-110.153 15.824-4.84 30.474 1.467 3.34 6.043.47.82z" fill="#5F5D7E"/><path d="M266.763 315.638c-.147 2.787-.88 7.04-.587 9.534.293 2.493 1.32 11.88.88 13.64-.44 1.76 1.611 3.814 2.344 4.694.732.88.293 3.52.44 5.574.146 2.053 2.05 3.96 2.05 3.96s-2.197 4.693-.586 5.427c1.612.733 4.982 7.48 4.982 7.48s1.13 1.426 2.631 3.362a8.042 8.042 0 0 1-2.778 3.52c-5.274 3.52-5.714 39.602-5.714 39.602l-.246.388-3.27-6.548s-19.486-29.482-20.805-29.922a2.063 2.063 0 0 1-.82-.586l1.846-7.627 12.453-110.153 15.824-4.84 30.474 1.466-16.046 1.614s-7.132 5.122-7.179 5.28l-12.817 5.427-2.344 35.202s-.586 10.719-.732 13.506z" fill="#000" opacity=".1"/><path d="M309.222 260.664c-.405 1.631-42.606-3.256-42.606-3.256l.293 11.294-2.344 35.202s-.586 10.707-.733 13.494c-.146 2.787-.879 7.04-.586 9.534.293 2.493 1.319 11.88.88 13.64-.44 1.76 1.61 3.814 2.343 4.694.733.88.294 3.52.44 5.574.147 2.053 2.051 3.96 2.051 3.96s-2.197 4.694-.586 5.427c1.612.733 4.982 7.48 4.982 7.48s1.611 2.036 3.516 4.535c-.237.215-.49.411-.756.587-5.275 3.52-5.714 39.602-5.714 39.602l-.246.388-2.116 3.367-4.061-8.126s-15.032-22.746-19.586-28.578l.89-3.678 1.847-7.627 12.453-110.153 15.824-4.84 30.474 1.467 3.34 6.013zM296.961 399.219c-.586 10.502-11.638 15.641-16.731 16.803-.985-2.247-2.04-4.459-2.04-4.459s6.3-15.547 14.652-14.08a9.418 9.418 0 0 1 4.12 1.736z" fill="#000" opacity=".1"/><path d="M265.004 315.638c-.146 2.787-.879 7.04-.586 9.534.293 2.493 1.319 11.88.88 13.64-.44 1.76 1.611 3.814 2.344 4.694.732.88.293 3.52.44 5.574.146 2.053 2.05 3.96 2.05 3.96s-2.197 4.693-.586 5.427c1.612.733 4.982 7.48 4.982 7.48s9.523 12.028 9.962 13.494c.44 1.467 4.25 2.347 4.25 2.347s6.592.733 7.618 14.814c1.025 14.081-16.263 19.508-18.9 19.068-2.637-.44-8.058-.88-8.058-.88l-4.25-8.507s-19.485-29.482-20.804-29.922c-1.318-.44-2.49-3.227-2.783-5.133-.294-1.907-1.612-2.64-3.077-3.52-1.465-.88-1.172-5.721-2.344-6.894-1.173-1.174-1.026-4.84-1.759-5.867-.732-1.027.586-3.667.586-3.667s-3.076-3.52-3.076-3.96c0-.44.146-3.96.146-3.96s-1.465-1.614-1.025-3.228c.44-1.613-1.172-5.426-1.172-5.426s-1.319-1.614-1.173-2.787c.147-1.174-.732-6.307-.732-6.307s-1.026-2.494-.88-4.254c.147-1.76-1.171-8.8-1.171-8.8s-1.319-2.054-1.319-3.374c0-1.32.147-6.307.147-6.307s-2.345-4.253-1.319-6.307c1.026-2.053-.293-8.214-1.172-9.387-.88-1.173-1.612-11.44-2.49-12.32-.88-.88 0-4.4 0-4.4l-1.32-12.468s-.878-4.4-.146-5.72c.733-1.32-.293-4.547-.586-6.014-.293-1.467.733-6.014.44-7.627-.123-.68.27-2.547.767-4.489.692-2.675 1.577-5.485 1.577-5.485s75.307-7.04 86.149.293c2.344 1.573 3.791 3.96 4.688 6.753 3.206 10.232-1.588 25.815-1.588 25.815l-41.61 5.427-2.344 35.202s-.61 10.701-.756 13.488z" fill="#5F5D7E"/><path d="M252.99 367.854s13.04-3.96 16.117-1.32c3.076 2.64-16.117 1.32-16.117 1.32zM257.679 384.575s3.956-4.254 9.816-2.934c3.438.802 7.045.441 10.256-1.026l-20.072 3.96zM271.45 389.415s10.696-1.467 11.136-.147c.44 1.32-11.135.147-11.135.147zM268.374 398.069s11.868-3.52 12.454-2.053c.586 1.466-13.04 1.906-13.04 1.906l.586.147zM281.707 319.011s-11.135 9.828-9.524 10.854c1.612 1.027 9.524-10.854 9.524-10.854zM272.623 343.36s7.765 0 6.3 1.76c-1.465 1.76-6.3-1.76-6.3-1.76zM277.311 350.253s-3.076 2.64-2.344 3.227c.733.587 2.344-3.227 2.344-3.227zM243.467 413.176s9.67 3.227 9.816 5.28c.147 2.054-9.816-5.28-9.816-5.28z" fill="#000" opacity=".1"/><path d="M290.35 106.48l-3.076 18.334s-26.665 14.081-27.105 14.081c-.439 0-19.486-3.227-20.218-3.227-.733 0-13.186-37.695-4.395-40.042 2.379-.634 5.83-2.16 9.599-4.054 10.162-5.087 22.633-12.814 22.633-12.814s18.607-2.053 14.065 10.854c-1.758 5.064-.855 8.748.92 11.359 2.79 4.048 7.578 5.509 7.578 5.509z" fill="#FDC2CC"/><path d="M290.35 106.48l-3.076 18.334s-26.665 14.081-27.105 14.081c-.439 0-19.486-3.227-20.218-3.227-.733 0-13.186-37.695-4.395-40.042 2.379-.634 5.83-2.16 9.599-4.054 2.397.158 4.026.387 4.026.387s5.86 22.441 6.3 29.335c.44 6.894 15.677 7.627 16.702 7.334 1.026-.294 5.275-17.161 5.275-17.161s-.44-5.867.879-5.867c1.102 0 3.645-3.52 4.436-4.63 2.79 4.049 7.578 5.51 7.578 5.51zM311.279 235.706c-2.04.997-6.916 3.274-8.205 2.934-1.612-.44-5.567-.44-5.567-.44s-2.345 2.64-4.835 2.053c-2.491-.587-12.307-.147-12.307-.147s-17.582.734-20.952-.44c-3.37-1.173-15.383-2.2-15.383-2.2s-16.41-1.907-19.193-3.08a4.795 4.795 0 0 0-4.835.587s-.51-.335-1.137-.822c.691-2.675 1.576-5.485 1.576-5.485s75.307-7.04 86.15.293c2.343 1.567 3.814 3.954 4.688 6.747z" fill="#000" opacity=".1"/><path d="M249.181 93.132s-14.798-2.053-20.658 1.907a17.324 17.324 0 0 1-6.904 2.67 12.92 12.92 0 0 0-8.31 4.957c-.375.505-.738.845-1.049.88-1.318.147-8.644 22.882-8.644 22.882l17.728 24.788s-.44 13.787 2.051 16.427c2.49 2.64-3.516 32.855-3.516 32.855s-2.93 10.414-1.612 12.028c1.319 1.613 0 3.666 0 3.666s-.293 2.64.44 2.64c.732 0 1.611 3.374.879 3.52-.733.147-4.103 2.934-2.93 3.521 1.172.587 0 1.907 0 3.227 0 1.32 3.37 3.52 3.37 3.52a4.795 4.795 0 0 1 4.834-.587c2.784 1.174 19.193 3.08 19.193 3.08s12.014 1.027 15.384 2.2c3.37 1.174 20.951.44 20.951.44s9.816-.44 12.307.147c2.49.587 4.835-2.053 4.835-2.053s3.956 0 5.567.44c1.612.44 9.084-3.374 9.084-3.374s-1.905-5.573-1.025-7.627c.879-2.053.293-6.013.293-6.013s-3.517-2.054-3.663-2.934c-.147-.88-1.612-2.053-1.172-3.227.44-1.173 2.93-.586 2.637-3.227-.293-2.64-3.37-5.426-3.077-7.04.293-1.613 1.465-4.547 0-6.307-1.465-1.76-2.051-4.547-2.198-6.747-.146-2.2 2.198-22.148 2.198-22.148l-5.42-40.189 16.555-8.213s-.733-5.72-1.758-8.8c-1.026-3.081-2.49-8.508-2.49-8.508s-3.37-6.6-4.103-6.894c-.733-.293-8.498-5.427-10.256-4.693-1.758.733-15.677 11.44-15.677 11.44s-3.37 4.987-4.688 4.987c-1.319 0-.88 5.867-.88 5.867s-4.248 16.868-5.274 17.161c-1.025.293-16.262-.44-16.702-7.334-.44-6.893-6.3-29.335-6.3-29.335z" fill="#D39999"/><path d="M226.208 179.852a33.188 33.188 0 0 1-6.183.763c-3.006.082-5.65-.3-6.3-1.385-1.758-2.933-1.758-8.507-1.758-8.507s7.947 1.837 13.432 3.843l.909.34c2.127.828 3.745 1.673 4.102 2.412.51.991-1.453 1.918-4.202 2.534z" fill="#FDC2CC"/><ellipse fill="#000" opacity=".1" cx="283.758" cy="71.425" rx="26.812" ry="26.841"/><ellipse fill="#FDC2CC" cx="283.758" cy="70.251" rx="26.812" ry="26.841"/><path d="M224.42 215.166s7.62 0 10.55.733c2.93.733 9.083.88 9.083.88s-16.995-.587-19.632-1.613zM224.714 219.86s9.816.733 9.962 2.2c.147 1.466-9.962-2.2-9.962-2.2zM299.435 201.818s6.007 2.2 5.86 2.934c-.146.733-5.274-1.174-5.86-2.934z" fill="#000" opacity=".1"/><path d="M207.425 123.787l-3.809 2.64s-1.612 9.388-1.612 11.588c0 2.2-2.637 18.04-2.637 18.04s-.879 2.934-.586 4.108c.293 1.173-1.172 7.187-1.172 7.187s-5.274 12.174-4.981 12.907c.293.734 25.053 3.08 25.053 3.08l3.516-32.855-13.772-26.695z" fill="#D39999"/><path d="M196.29 176.297l-3.662 3.96s-.147 12.908 3.516 14.228c3.663 1.32 6.007.733 7.179 1.76 1.172 1.026 7.472 2.933 7.472 2.933s6.886 1.027 8.937.734c2.051-.294-12.014-11.588-2.783-21.122l-20.659-2.493zM312.181 113.52l5.128 5.72s2.198 13.641 1.612 15.548c-.586 1.907 3.076 35.055 3.076 35.055s3.517 14.374-4.395 16.281a13.834 13.834 0 0 0-1.905 2.054c-.293.586-6.593-.294-6.593-.294l-9.67-63.51 12.747-10.854z" fill="#D39999"/><path d="M242.442 166.03s19.193-11.44 22.709-12.028c3.516-.586 25.346-11 25.346-11s10.842 5.573 11.868 9.827c1.025 4.254-4.542 21.268-4.542 21.268s-17.874 12.467-18.9 15.107c-1.026 2.64-16.41 10.414-16.41 11.734 0 1.32-24.32 15.694-35.016 3.08-10.695-12.614-10.548-16.28-10.548-16.28l27.104-6.307 2.637-11.734-4.248-3.667z" fill="#000" opacity=".1"/><path d="M242.442 164.856s19.193-11.44 22.709-12.027c3.516-.587 25.346-11 25.346-11s10.842 5.573 11.868 9.827c1.025 4.253-4.542 21.267-4.542 21.267s-17.874 12.468-18.9 15.108c-1.026 2.64-16.41 10.414-16.41 11.734 0 1.32-24.32 15.694-35.016 3.08-10.695-12.614-10.548-16.28-10.548-16.28l27.104-6.308 2.637-11.734-4.248-3.667z" fill="#C4C8E2"/><path d="M212.846 169.99l-.879 7.334-6.968-.51-6.804-.505s-3.956 0-6.446-5.867c-2.491-5.867 5.567-6.747 6.007-5.867.334.663 8.79 3.426 12.893 4.734l2.197.681z" fill="#FDC2CC"/><path d="M212.846 169.99l-.879 7.334-6.968-.51c1.137-1.69 3.516-4.782 5.655-7.505l2.192.681z" fill="#000" opacity=".1"/><path d="M211.967 170.723s7.947 1.837 13.432 3.843c-.363.587-2.79 4.389-5.374 6.05-3.006.081-5.65-.3-6.3-1.386-1.758-2.933-1.758-8.507-1.758-8.507zM226.208 179.852l-.129-1.015s-.058-.217-.111-.545c-.106-.67-.182-1.796.31-2.482.288-.405.223-.692.036-.898 2.127.828 3.744 1.672 4.102 2.412.504.985-1.46 1.912-4.208 2.528z" fill="#000" opacity=".1"/><path d="M251.086 175.053s-7.959 7.973-8.451 9.68c-.492 1.708-15.53 1.76-15.53 1.76l-1.026-8.213s-.058-.217-.111-.546c-.106-.668-.182-1.795.31-2.481.733-1.027-.832-1.32-.832-1.32s-4.055 6.694-7.472 6.893c0 0-4.735 3.42-4.688 4.107 0 0-2.298 2.1-2.344 4.641-.047 2.54-2.978 3.573-5.128 2.84-2.151-.734-7.472-2.3-9.184-2.054-1.71.247-7.126 1.854-6.933-3.18 0 0 7.033-5.28 8.791-5.133 1.758.146 5.86-1.907 6.447-3.52.586-1.614 10.548-13.935 10.548-13.935s6.3-5.966 8.838-6.553c0 0 5.081-3.96 12.747 2.053 0 0 10.601 6.548 10.941 7.428.27.692 3.346 3.65 3.604 5.867.121.61-.078 1.238-.527 1.666z" fill="#FDC2CC"/><path d="M226.226 163.39s.78 4.5.392 6.113c-.386 1.613-1.172 4.4-1.172 4.4s4.735-7.433.78-10.513zM226.566 174.343s2.443-2.693 2.983-2.006c.539.686-2.983 2.006-2.983 2.006z" fill="#000" opacity=".1"/><path d="M326.615 146.892c0 7.669-5.08 14.407-12.447 16.51-1.5.43-3.052.652-4.612.656h-.088a17.132 17.132 0 0 1-12.12-5.03 17.17 17.17 0 0 1-5.016-12.136 16.363 16.363 0 0 1 .27-3.004c1.374-7.72 7.81-13.52 15.623-14.081.41-.035.827-.053 1.243-.053 9.46-.003 17.135 7.667 17.147 17.138z" fill="#F8BDC5"/><path d="M335.658 144.785a6.04 6.04 0 0 1 1.395 3.556c-1.711.158-3.516.364-4.876 1.437-1.172.915-1.758 2.347-2.344 3.679a774.92 774.92 0 0 0-1.594 3.766c-.832 1.966-1.688 3.972-3.136 5.539a10.839 10.839 0 0 0-1.629 1.889c-.404.733-.586 1.66-1.242 2.153a2.342 2.342 0 0 1-2.215.123c-.721-.27-1.366-.721-2.087-1.009a6.634 6.634 0 0 0-1.436-.375c-2.145-.317-4.506.146-6.329-1.01a3.775 3.775 0 0 1-.586-.48 5.68 5.68 0 0 1-1.494-2.535 2.854 2.854 0 0 1-.141-1.214c.17-.76.668-1.405 1.36-1.76.1-.06.199-.118.304-.17 1.759-.922 4.202-1.139 5.122-2.934.88-1.702-.21-3.773-1.547-5.145-.633-.646-1.383-1.38-1.295-2.283.082-.798.791-1.355 1.383-1.889a10.282 10.282 0 0 0 3.212-5.767 4.387 4.387 0 0 0-.035-2.083 5.523 5.523 0 0 0-.745-1.367l-1.899-2.816a7.723 7.723 0 0 0-2.344-2.488c-.79-.475-1.7-.64-2.496-1.109a1.982 1.982 0 0 1-.739-.704.758.758 0 0 1-.093-.551c.1-.47.586-.698 1.072-.833a10.438 10.438 0 0 1 3.88-.37c.413.088.84.088 1.254 0 .423-.113.7-.52.65-.956 1.442-.376 2.807.75 3.862 1.807 1.055 1.056 2.345 2.212 3.833 1.913.533-.106 1.026-.411 1.565-.47.539-.059 1.207.294 1.172.84-.035.545-.715.897-.656 1.425.035.183.118.353.24.493.676.932 1.479 1.765 2.385 2.476v-3.122c1.172.294 1.6 1.796 1.465 3.01-.135 1.215-.586 2.44-.305 3.626.072.411.332.765.704.956.3.082.618.082.92 0 2.69-.381 5.83.335 7.167 2.699l-2.344-.85 2.725 1.49c.373.171.705.421.973.733a.975.975 0 0 1 .07 1.138 3.636 3.636 0 0 0-3.106-.458z" fill="#585268"/><g opacity=".1" fill="#000"><path d="M330.495 139.898c.301.082.619.082.92 0 .264-.035.528-.058.797-.076a9.437 9.437 0 0 0-1.758.053l.041.023zM336.215 141.764l1.008.557-.188-.264zM328.655 135.428v-2.054a1.806 1.806 0 0 0-1.172-1.068v2.066c.368.376.76.728 1.172 1.056zM337.387 144.58c.517.09 1.01.29 1.442.587a.728.728 0 0 0 .146-.475 3.723 3.723 0 0 0-1.588-.112zM321.312 166.84c-.721-.27-1.366-.722-2.087-1.01a6.634 6.634 0 0 0-1.435-.375c-2.145-.317-4.507.146-6.33-1.01a3.775 3.775 0 0 1-.586-.48 5.68 5.68 0 0 1-1.494-2.535 2.854 2.854 0 0 1-.14-1.214c.169-.76.667-1.405 1.359-1.76.1-.06.199-.118.305-.17 1.787-.922 4.201-1.139 5.122-2.934.879-1.702-.211-3.773-1.548-5.145-.633-.646-1.383-1.38-1.295-2.283.082-.798.791-1.355 1.383-1.889a10.282 10.282 0 0 0 3.212-5.767 4.387 4.387 0 0 0-.035-2.083 5.523 5.523 0 0 0-.745-1.367l-1.898-2.816a7.723 7.723 0 0 0-2.345-2.488c-.79-.475-1.7-.64-2.496-1.109a1.982 1.982 0 0 1-.739-.704.758.758 0 0 1-.093-.551c.1-.47.615-.698 1.072-.833a10.825 10.825 0 0 1 2.344-.387c-1.185-.07-2.374.06-3.516.387-.457.135-.973.364-1.072.833a.758.758 0 0 0 .093.551c.18.296.435.538.739.704.797.47 1.705.634 2.496 1.11a7.723 7.723 0 0 1 2.345 2.487l1.898 2.816c.312.418.562.878.745 1.367.178.681.19 1.396.035 2.083a10.282 10.282 0 0 1-3.212 5.767c-.586.534-1.3 1.091-1.383 1.89-.088.903.662 1.636 1.295 2.282 1.337 1.372 2.427 3.443 1.547 5.145-.92 1.79-3.334 2.006-5.122 2.933a5.09 5.09 0 0 0-.304.17c-.692.356-1.19 1.001-1.36 1.76-.041.41.007.825.14 1.215a5.68 5.68 0 0 0 1.495 2.535c.179.18.375.34.586.48 1.823 1.174 4.185.693 6.33 1.01.49.07.972.197 1.435.375.721.288 1.366.74 2.087 1.01.523.214 1.1.264 1.652.14a3.46 3.46 0 0 1-.48-.14zM323.949 130.664c.36-.093.715-.208 1.06-.347a1.259 1.259 0 0 0-.667-.123c-.498.118-.987.267-1.466.446.352.087.718.095 1.073.024zM314.35 127.93c.415.078.842.068 1.254-.03a.886.886 0 0 0 .65-.95c-.384-.1-.788-.1-1.172 0a.886.886 0 0 1-.65.956.937.937 0 0 1-.124.03l.041-.006z"/></g><path d="M294.014 137.504c-2.186 1.637-5.673 2.347-8.879 2.582a47.634 47.634 0 0 1-7.53 0l-5.644-2.124s.457-.91 1.23-2.112c1.542-2.394 4.343-5.955 7.267-5.808 4.396.217 9.014.434 9.453.434.44 0 9.008 3.362 4.103 7.028z" fill="#FDC2CC"/><path d="M279.738 20.065c-4.173-.076-8.48-.123-12.307 1.484-7.695 3.186-11.323 11.7-15.976 18.564a53.06 53.06 0 0 1-14.505 14.38c-2.695 1.76-5.825 3.696-6.475 6.864-.692 3.35 1.699 6.454 2.93 9.628 2.608 6.753 0 14.233-1.542 21.309a69.244 69.244 0 0 0-1.388 10.314 14.33 14.33 0 0 0 .31 4.799c1.172 4.142 5.603 7.134 5.638 11.44 0 2.934-2.063 5.703-1.46 8.555.78 3.643 5.199 4.957 8.862 5.585a4.525 4.525 0 0 0 2.666-.082c.586-.282 1.067-.822 1.665-1.12 2.033-1.01 4.29 1.12 6.563 1.079 2.854-.053 4.46-3.427 4.53-6.284.07-2.857-.691-5.867.334-8.507 1.366-3.52 5.275-5.192 8.574-7.04 3.651-2.048 7.127-5.005 8.205-9.047.674-2.5.37-5.146.1-7.715-.41-3.943-.733-7.903-.956-11.857-.586-10.092 7.789-18.5 17.851-17.713h.188c2.93.24 6.388.522 8.456-1.613.821-.851 1.343-2.024 2.345-2.611 1.957-1.115 4.647.475 6.616-.622 1.541-.862 1.87-2.934 1.63-4.694-.24-1.76-.856-3.52-.528-5.245.469-2.446 2.69-4.195 3.516-6.547.95-2.681-.076-5.68-1.553-8.108-4.73-7.81-14.358-13.923-23.383-14.744-3.628-.352-7.267-.393-10.906-.452z" fill="#865A61"/><path d="M273.191 135.832c3.482.716 7.719 2.306 11.944 4.248a47.634 47.634 0 0 1-7.53 0l-5.644-2.124s.457-.92 1.23-2.124zM316.5 165.543c-2.145-.317-4.506.146-6.329-1.01a3.775 3.775 0 0 1-.586-.48h-.088a17.132 17.132 0 0 1-12.136-5.018 17.17 17.17 0 0 1-5.03-12.143 16.363 16.363 0 0 1 .27-3.004c6.007 3.362 10.877 6.817 11.815 8.507a34.914 34.914 0 0 0 4.864 6.143c1.635 1.76 3.388 3.45 4.888 4.863.89.828 1.693 1.561 2.332 2.142z" fill="#000" opacity=".1"/><path d="M317.456 167.497s-10.696-9.241-13.626-14.521c-2.93-5.28-44.1-27.722-38.826-10.708 5.275 17.015 23.442 18.628 23.442 18.628s5.86 6.6 6.447 9.827c.586 3.227 2.637 7.92 2.637 7.92l9.816 4.401 4.542-1.027s10.695-5.867 5.568-14.52z" fill="#FDC2CC"/><path d="M296.944 178.057s17.288 9.827 19.046-13.2l4.396 1.466-4.396 15.548-7.472 5.427s-10.402-4.84-11.574-9.24z" fill="#000" opacity=".1"/><path d="M297.53 178.644s17.288 9.827 19.046-13.2l4.396 1.466-4.396 15.547-7.472 5.427s-10.402-4.84-11.574-9.24z" fill="#D39999"/><path d="M312.796 61.95c.2-2.06 1.038-4.002 1.477-6.026.434-1.958.493-3.98.176-5.96a8.66 8.66 0 0 0-1.547-3.967c-.586-.733-2.344-2.347-3.37-1.62-.586.417-.744 2.829-.979 3.521a30.41 30.41 0 0 1-3.281 6.6 26.86 26.86 0 0 1 2.176 27.935 26.802 26.802 0 0 1-23.86 14.648c-.639 0-1.272-.03-1.899-.076-.586 1.02-1.12 2.053-1.658 3.086a9.593 9.593 0 0 0-1.266 3.42 8.915 8.915 0 0 0 .521 3.403 48.025 48.025 0 0 0 4.49 10.261c.659 1.004 1.2 2.081 1.611 3.21.334 1.085.393 2.247.826 3.291.973 2.347 3.517 3.52 5.86 4.5 1.402.587 2.867 1.173 4.379 1.05a1.019 1.019 0 0 0 1.096-1.038 3.975 3.975 0 0 0-1.173-3.374c1.989.624 4.075.873 6.154.734a.99.99 0 0 0 1.067-1.455 26.42 26.42 0 0 0-2.45-6.349c-1.067-1.97-2.426-4.265-1.454-6.277.557-1.174 1.73-1.83 2.796-2.529 3.604-2.347 6.798-6.172 6.517-10.472-.153-2.347-1.336-4.583-1.407-6.947-.181-5.767 6.019-9.892 6.957-15.589.744-4.658-2.21-9.27-1.759-13.98z" fill="#865A61"/><g opacity=".1" fill="#000"><path d="M236.106 116.5c-.035-4.306-4.46-7.298-5.637-11.44a9.643 9.643 0 0 1-.334-2 13.191 13.191 0 0 0 .334 4.347c1.078 3.784 4.852 6.612 5.526 10.361.075-.418.113-.842.111-1.267zM254.403 130.517c-2.274.041-4.53-2.089-6.564-1.08-.586.3-1.055.84-1.664 1.121-.86.295-1.79.323-2.667.082-3.65-.628-8.058-1.936-8.85-5.55a6.014 6.014 0 0 0 0 2.312c.78 3.643 5.2 4.957 8.862 5.585a4.525 4.525 0 0 0 2.666-.082c.586-.282 1.067-.822 1.665-1.12 2.033-1.01 4.29 1.12 6.564 1.079 2.854-.053 4.46-3.427 4.53-6.284 0-.587 0-1.173-.041-1.76-.3 2.71-1.846 5.644-4.501 5.697zM276.057 99.633c-1.09 4.042-4.565 7-8.204 9.047-3.3 1.854-7.209 3.52-8.574 7.04a11.235 11.235 0 0 0-.504 4.723c.05-.812.22-1.613.504-2.376 1.365-3.52 5.274-5.192 8.574-7.04 3.65-2.048 7.126-5.005 8.204-9.047.372-1.535.497-3.12.37-4.694a12.08 12.08 0 0 1-.37 2.347zM308.143 57.89c-1.412-.106-2.883-.435-4.102.246-1.026.587-1.547 1.76-2.344 2.61-2.069 2.136-5.497 1.855-8.457 1.614h-.187c-10.063-.786-18.426 7.627-17.851 17.713v.234a16.71 16.71 0 0 1 5.674-11.519 16.673 16.673 0 0 1 12.165-4.081h.187c2.93.24 6.388.522 8.457-1.613.82-.851 1.342-2.025 2.344-2.611 1.172-.68 2.667-.352 4.103-.247a26.767 26.767 0 0 1 1.904 8.8c0-.38.03-.762.03-1.173 0-3.417-.653-6.802-1.923-9.973zM234.184 76.16c.176-2.552-.19-5.111-1.072-7.51-.926-2.4-2.514-4.753-2.93-7.2-.64 3.316 1.722 6.384 2.93 9.546a16.843 16.843 0 0 1 1.072 5.163zM314.308 51.33a15.27 15.27 0 0 1-.328 2.247c-.44 2.024-1.277 3.966-1.477 6.026-.07.733-.07 1.472 0 2.206.223-2.007 1.026-3.908 1.46-5.867a15.91 15.91 0 0 0 .345-4.612zM314.238 73.595c-.938 5.697-7.138 9.822-6.956 15.589.01.312.037.624.082.933.738-5.052 6.019-8.953 6.874-14.175a10.86 10.86 0 0 0 .059-2.857c-.018.17-.018.34-.059.51zM315.305 41.01a16.431 16.431 0 0 1-2.11 3.52c.243.473.44.968.586 1.479a11.667 11.667 0 0 0 1.506-2.681 7.048 7.048 0 0 0 .27-3.403 6.207 6.207 0 0 1-.252 1.085zM308.618 97.838c-.522 3.59-3.329 6.718-6.447 8.765-1.066.698-2.238 1.379-2.795 2.529a3.888 3.888 0 0 0-.158 2.746c.041-.138.094-.271.158-.4.557-1.173 1.729-1.83 2.795-2.528 3.605-2.347 6.799-6.172 6.517-10.473a7.618 7.618 0 0 0-.07-.64zM296.897 126.633a1.253 1.253 0 0 1-.756.258c-1.512.13-2.977-.463-4.378-1.05-2.344-.974-4.9-2.16-5.86-4.5-.434-1.044-.492-2.206-.827-3.291a15.525 15.525 0 0 0-1.611-3.21 48.025 48.025 0 0 1-4.49-10.261 15.802 15.802 0 0 1-.421-1.649 6.814 6.814 0 0 0-.1.587 8.915 8.915 0 0 0 .522 3.403 48.025 48.025 0 0 0 4.489 10.261c.66 1.004 1.2 2.08 1.611 3.21.335 1.085.393 2.247.827 3.29.973 2.348 3.516 3.521 5.86 4.5 1.4.588 2.866 1.174 4.378 1.051a1.019 1.019 0 0 0 1.096-1.038 3.894 3.894 0 0 0-.176-1.76.71.71 0 0 1-.164.199zM302.98 123.03c-.24.115-.502.177-.768.183-2.078.139-4.165-.11-6.153-.734a3.962 3.962 0 0 1 1.201 2.67c1.622.382 3.29.52 4.952.41a.99.99 0 0 0 1.067-1.455 20.618 20.618 0 0 0-.299-1.073z"/></g><path d="M221.197 135.961s-.586 12.028 1.172 12.908c1.759.88-1.172-12.908-1.172-12.908zM254.456 167.643c.586 0 2.93 1.174 3.223 2.494.293 1.32-3.223-2.494-3.223-2.494zM252.99 169.55c.586 0 2.93 1.173 3.224 2.493.293 1.32-3.224-2.493-3.224-2.493zM258.411 174.83c.586 0 2.93 1.174 3.224 2.494.293 1.32-3.224-2.494-3.224-2.494zM251.086 175.053s-7.959 7.973-8.451 9.68c-.492 1.708-15.53 1.76-15.53 1.76l-1.026-8.213s-.058-.217-.111-.546c4.155-1.067 17.628-6.048 25.645-4.283.098.589-.099 1.188-.527 1.602z" fill="#000" opacity=".1"/><path d="M214.845 185.144s7.671-6.794 10.015-6.647c2.344.147 30.914-12.027 32.819 1.614 1.904 13.64-36.482 14.374-36.482 14.374l-5.86 2.2s-4.888-10.66-.492-11.54z" fill="#FDC2CC"/><path d="M212.6 186.124s3.516-4.887 4.589 1.074c1.072 5.96 2.69 13.3 2.69 13.3l-7.865-3.913.586-10.46z" fill="#D39999"/><ellipse fill="#6C63FF" opacity=".1" cx="41.023" cy="398.685" rx="41.023" ry="6.301"/><path d="M63.967 329.818a10.083 10.083 0 0 0-1.336 2.517c-.082.217-.164.47-.246.71a2.16 2.16 0 0 0-.463-.158 6.469 6.469 0 0 0-2.093-.182c0-.27.036-.587.042-.863.087-3.091-.276-7.398-3.224-5.573-2.824 1.76-.808 4.693 1.014 6.57.158.165.317.318.469.464-1.664 1.174-1.98 3.949-2.256 6.83-.276 2.88-2.72 6.03-4.343 7.826-.164.182-.31.346-.457.499a5.914 5.914 0 0 0-4.688-1.215 24.556 24.556 0 0 0-.217-.798c-1.342-4.77-4.062-12.983-7.543-14.743.147-.182.3-.37.457-.587 1.477-1.936 3.142-4.811.686-5.544-2.455-.734-2.678 2.493-2.543 4.91 0 .3.047.587.07.857a3.597 3.597 0 0 0-2.561 1.244l-.381-.452c-1.993-2.347-5.644-6.078-6.751-3.256-1.026 2.622 2.186 6.037 4.448 8.014l.14.123c-1.517 6.172 5.11 11.2 8.68 13.395l.463.287c-4.923 5.803-7.965 16.692-7.965 16.692l13.79 2.464s9.137-7.897 7.965-15.307h.093c9.137-1.837 11.211-11.587 9.793-17.372l.158-.07a10.374 10.374 0 0 0 4.232-3.198c2.549-3.562-2.808-7.575-5.433-4.084z" fill="#6C63FF"/><path d="M63.967 329.818a10.083 10.083 0 0 0-1.336 2.517c-.082.217-.164.47-.246.71a2.16 2.16 0 0 0-.463-.158 6.469 6.469 0 0 0-2.093-.182c0-.27.036-.587.042-.863.087-3.091-.276-7.398-3.224-5.573-2.824 1.76-.808 4.693 1.014 6.57.158.165.317.318.469.464-1.664 1.174-1.98 3.949-2.256 6.83-.276 2.88-2.72 6.03-4.343 7.826-.164.182-.31.346-.457.499a5.914 5.914 0 0 0-4.688-1.215 24.556 24.556 0 0 0-.217-.798c-1.342-4.77-4.062-12.983-7.543-14.743.147-.182.3-.37.457-.587 1.477-1.936 3.142-4.811.686-5.544-2.455-.734-2.678 2.493-2.543 4.91 0 .3.047.587.07.857a3.597 3.597 0 0 0-2.561 1.244l-.381-.452c-1.993-2.347-5.644-6.078-6.751-3.256-1.026 2.622 2.186 6.037 4.448 8.014l.14.123c-1.517 6.172 5.11 11.2 8.68 13.395l.463.287c-4.923 5.803-7.965 16.692-7.965 16.692l13.79 2.464s9.137-7.897 7.965-15.307h.093c9.137-1.837 11.211-11.587 9.793-17.372l.158-.07a10.374 10.374 0 0 0 4.232-3.198c2.549-3.562-2.808-7.575-5.433-4.084z" fill="#000" opacity=".1"/><path d="M36.528 333.796l-1.611 4.694s-.897-.634-2.028-1.631c-2.262-1.977-5.474-5.392-4.448-8.015 1.107-2.822 4.759.904 6.751 3.257a40.01 40.01 0 0 1 1.336 1.695zM39.927 331.115a22.81 22.81 0 0 1-1.57 1.848 24.797 24.797 0 0 1-.287-2.482c-.135-2.417.123-5.626 2.543-4.91 2.42.715.791 3.596-.686 5.544zM60.714 331.842c-.046 1.555-.199 2.799-.199 2.799a19.587 19.587 0 0 1-2.01-1.801c-1.823-1.89-3.839-4.811-1.014-6.571 2.948-1.825 3.311 2.5 3.223 5.573zM70.238 333.884a10.374 10.374 0 0 1-4.232 3.198c-.46.203-.934.376-1.418.516l-1.899-2.67c.201-.881.464-1.748.786-2.593.324-.898.774-1.745 1.336-2.517 2.625-3.49 7.982.522 5.427 4.066z" fill="#6C63FF"/><path d="M35.192 332.13a31.6 31.6 0 0 1 1.336 1.666l-1.611 4.694s-.897-.634-2.028-1.631a9.216 9.216 0 0 1 1.817-4.148l.486-.581zM39.927 331.115a22.81 22.81 0 0 1-1.57 1.848 24.797 24.797 0 0 1-.287-2.482c.67.011 1.32.233 1.857.634z" fill="#000" opacity=".1"/><path d="M47.857 349.848l-4.015 1.76s-.873-.422-2.133-1.208c-4.214-2.593-12.682-9.123-7.033-16.82 5.65-7.698 10.414 6.107 12.307 12.86.569 2.024.874 3.408.874 3.408z" fill="#6C63FF"/><path d="M58.505 332.84a3.304 3.304 0 0 1 2.21-.998c-.047 1.555-.2 2.799-.2 2.799a19.587 19.587 0 0 1-2.01-1.801zM66.006 337.082c-.46.203-.934.376-1.418.516l-1.899-2.67c.201-.881.464-1.748.786-2.593 1.225.716 2.127 2.5 2.531 4.747z" fill="#000" opacity=".1"/><path d="M56.055 354.524l-.674.118c-13.438 2.041-4.43-5.216-4.43-5.216s.586-.587 1.424-1.467c1.623-1.795 4.061-4.928 4.343-7.827.422-4.359.908-8.448 6.048-7.245 5.045 1.161 6.012 19.085-6.71 21.637z" fill="#6C63FF"/><path fill="#D4DFEC" d="M30.129 388.019h25.675v6.759H30.129z"/><path fill="#D4DFEC" d="M26.05 366.047h33.545v23.585H26.05z"/><path fill="#000" opacity=".1" d="M30.129 388.019h25.675v6.759H30.129z"/><path fill="#000" opacity=".1" d="M26.05 366.047h33.545v23.585H26.05z"/><path fill="#D4DFEC" d="M31.816 388.019h25.675v6.759H31.816z"/><path d="M46.983 346.445c.586 2.019.874 3.403.874 3.403l-4.015 1.76s-.873-.422-2.133-1.208c1.57-1.983 3.34-3.491 5.274-3.955zM56.055 354.524l-.674.118c-13.438 2.041-4.43-5.216-4.43-5.216s.586-.587 1.424-1.467c2.508 2.007 3.546 4.277 3.68 6.565z" fill="#000" opacity=".1"/><path d="M34.208 367.385s7.524-26.988 18.08-18.657c10.554 8.33-4.29 21.12-4.29 21.12l-13.79-2.463z" fill="#6C63FF"/><ellipse fill="#000" opacity=".1" cx="38.005" cy="337.815" rx="1" ry="1"/><ellipse fill="#000" opacity=".1" cx="37.935" cy="341.758" rx="1" ry="1"/><ellipse fill="#000" opacity=".1" cx="62.414" cy="338.589" rx="1" ry="1"/><ellipse fill="#000" opacity=".1" cx="42.717" cy="358.795" rx="1" ry="1"/><ellipse fill="#000" opacity=".1" cx="60.656" cy="345.137" rx="1" ry="1"/><ellipse fill="#000" opacity=".1" cx="51.935" cy="353.867" rx="1" ry="1"/><ellipse fill="#000" opacity=".1" cx="40.888" cy="339.505" rx="1" ry="1"/><ellipse fill="#000" opacity=".1" cx="60.093" cy="341.124" rx="1" ry="1"/><ellipse fill="#000" opacity=".1" cx="57.21" cy="347.672" rx="1" ry="1"/><ellipse fill="#000" opacity=".1" cx="48.349" cy="358.162" rx="1" ry="1"/><ellipse fill="#000" opacity=".1" cx="46.52" cy="354.008" rx="1" ry="1"/><ellipse fill="#000" opacity=".1" cx="42.154" cy="344.644" rx="1" ry="1"/><path fill="#000" opacity=".1" d="M31.816 388.019h25.675v2.47H31.816z"/><path fill="#D4DFEC" d="M27.738 366.047h33.545v23.585H27.738z"/><ellipse fill="#000" opacity=".1" cx="49.474" cy="361.964" rx="1" ry="1"/><ellipse fill="#000" opacity=".1" cx="44.411" cy="363.02" rx="1" ry="1"/></g></svg>